<svg viewBox="0 0 119.21 119.23" xmlns="http://www.w3.org/2000/svg"><g transform="translate(-202.97 -209.18)"><path d="m304 237.16-4.11-4.69 5.79-5.07 1.33 1.52-4.61 4 2.78 3.17z"/><path d="m310.38 245.84a5.62 5.62 0 0 1 -3.3-5.87 3.69 3.69 0 0 1 2-2.5 3.76 3.76 0 0 1 3.16-.39 5.62 5.62 0 0 1 3.3 5.87 3.77 3.77 0 0 1 -2 2.5 3.72 3.72 0 0 1 -3.16.39zm1.79-6.78a2.62 2.62 0 0 0 -2 .33 2.68 2.68 0 0 0 -1.35 1.56 2.65 2.65 0 0 0 1.64 2.92 3 3 0 0 0 3.37-1.9 2.64 2.64 0 0 0 -1.63-2.91z"/><path d="m311.85 252-.59-2 8.36 1.17.56 1.91-6.43 5.47-.59-2 1.31-1.08-.93-3.2zm3.76 2.57 2.39-1.97-3.09-.31z"/><path d="m322.17 265a4.92 4.92 0 0 1 -.88 3.52 3.7 3.7 0 0 1 -2.67 1.18 3.8 3.8 0 0 1 -2.88-.85 5 5 0 0 1 -1.27-3.59l-.2-3.38 7.69-.45zm-6.25-1.19.08 1.19a3.13 3.13 0 0 0 .65 2 2.2 2.2 0 0 0 1.83.62 2.28 2.28 0 0 0 1.73-.78 2.84 2.84 0 0 0 .41-2l-.07-1.28z"/><path d="m321.75 276.88-7.64-.9.23-2 7.65.9z"/><path d="m311.13 287.88.58-1.88 6.08-2.19-4.93-1.52.59-1.93 7.36 2.26-.59 1.89-6.07 2.18 4.93 1.52-.59 1.94z"/><path d="m308.69 301.11-3.55-2.11.74-1.23 1 .51a2.52 2.52 0 0 1 -.32-1.45 4.55 4.55 0 0 1 .72-1.82 4 4 0 0 1 2.53-2.15 4.17 4.17 0 0 1 3 .63 4.06 4.06 0 0 1 2 2.59 4.45 4.45 0 0 1 -.74 3.35 5.37 5.37 0 0 1 -2 2.16 2.54 2.54 0 0 1 -2.46 0l1.08-1.81a1.1 1.1 0 0 0 1.12-.05 2.32 2.32 0 0 0 .88-.95 2.28 2.28 0 0 0 .38-1.77 2.89 2.89 0 0 0 -1.38-1.59 2.49 2.49 0 0 0 -2-.4 2.17 2.17 0 0 0 -1.36 1.17 2.25 2.25 0 0 0 -.41 1.47 1.89 1.89 0 0 0 .68 1.1l.91-1.53 1.08.64z"/><path d="m294.07 310.35 4.7-4.09 5.05 5.8-1.52 1.33-4-4.63-3.18 2.77z"/><path d="m285.37 316.68a5.6 5.6 0 0 1 5.88-3.27 3.69 3.69 0 0 1 2.49 2 3.73 3.73 0 0 1 .38 3.16 5.6 5.6 0 0 1 -5.89 3.27 4.21 4.21 0 0 1 -2.86-5.15zm6.78 1.82a3 3 0 0 0 -1.88-3.38 2.66 2.66 0 0 0 -2.93 1.62 2.7 2.7 0 0 0 .33 2 2.65 2.65 0 0 0 1.55 1.34 2.23 2.23 0 0 0 1.75-.29 2.28 2.28 0 0 0 1.18-1.29z"/><path d="m279.22 318.14 2-.58-1.19 8.36-1.91.55-5.43-6.47 2-.58 1.07 1.31 3.21-.92zm-2.59 3.75 1.94 2.44.33-3.09z"/><path d="m266.19 328.4a4.91 4.91 0 0 1 -3.52-.89 3.65 3.65 0 0 1 -1.17-2.68 3.73 3.73 0 0 1 .86-2.87 5.07 5.07 0 0 1 3.64-1.26l3.38-.19.43 7.69zm1.21-6.24-1.17.07a3.14 3.14 0 0 0 -2 .64 2.26 2.26 0 0 0 -.63 1.83 2.32 2.32 0 0 0 .78 1.73 2.9 2.9 0 0 0 2 .42l1.28-.07z"/><path d="m254.29 327.94.93-7.64 2 .24-.93 7.65z"/><path d="m243.33 317.29 1.88.58 2.17 6.09 1.54-4.93 1.93.6-2.29 7.37-1.89-.59-2.16-6.09-1.51 4.92-1.94-.61z"/><path d="m230.09 314.77 2.13-3.54 1.22.74-.51 1a2.52 2.52 0 0 1 1.45-.32 4.56 4.56 0 0 1 1.82.73 4 4 0 0 1 2.13 2.53 4.12 4.12 0 0 1 -.64 3 4.08 4.08 0 0 1 -2.6 2 4.46 4.46 0 0 1 -3.34-.76 5.29 5.29 0 0 1 -2.16-2 2.56 2.56 0 0 1 0-2.46l1.81 1.09a1.13 1.13 0 0 0 0 1.12 2.42 2.42 0 0 0 .95.89 2.32 2.32 0 0 0 1.77.38 2.89 2.89 0 0 0 1.6-1.37 2.55 2.55 0 0 0 .4-2 2.22 2.22 0 0 0 -1.16-1.36 2.25 2.25 0 0 0 -1.47-.41 1.87 1.87 0 0 0 -1.1.67l1.53.92-.65 1.08z"/><path d="m220.92 300.12 4.08 4.72-5.84 5-1.32-1.53 4.65-4-2.75-3.19z"/><path d="m214.62 291.41a5.59 5.59 0 0 1 3.25 5.89 4.18 4.18 0 0 1 -5.16 2.85 4.8 4.8 0 0 1 -2.61-2.4 4.87 4.87 0 0 1 -.65-3.49 3.77 3.77 0 0 1 2-2.49 3.71 3.71 0 0 1 3.17-.36zm-1.84 6.77a2.64 2.64 0 0 0 2-.32 2.67 2.67 0 0 0 1.36-1.55 2.66 2.66 0 0 0 -1.62-2.93 2.63 2.63 0 0 0 -2 .32 2.67 2.67 0 0 0 -1.36 1.55 2.66 2.66 0 0 0 1.62 2.93z"/><path d="m213.19 285.25.57 2-8.34-1.24-.54-1.91 6.47-5.42.57 2-1.32 1.07.91 3.21zm-3.73-2.6-2.46 1.92 3.09.34z"/><path d="m203 272.18a4.85 4.85 0 0 1 .9-3.51 3.7 3.7 0 0 1 2.68-1.17 3.81 3.81 0 0 1 2.87.88 5 5 0 0 1 1.24 3.59l.18 3.39-7.69.39zm6.23 1.24-.06-1.17a3.19 3.19 0 0 0 -.63-2 2.27 2.27 0 0 0 -1.83-.64 2.23 2.23 0 0 0 -1.73.78 2.83 2.83 0 0 0 -.43 2l.06 1.28z"/><path d="m203.48 260.28 7.65 1-.26 2-7.64-1z"/><path d="m214.2 249.35-.6 1.88-6.1 2.14 4.93 1.56-.61 1.93-7.34-2.33.6-1.89 6.09-2.13-4.93-1.51.62-1.93z"/><path d="m216.75 236.14 3.53 2.14-.74 1.22-1-.52a2.61 2.61 0 0 1 .32 1.45 4.72 4.72 0 0 1 -.74 1.82 4 4 0 0 1 -2.54 2.12 4.67 4.67 0 0 1 -5.05-3.25 4.49 4.49 0 0 1 .77-3.35 5.32 5.32 0 0 1 2-2.14 2.56 2.56 0 0 1 2.46 0l-1.1 1.8a1.13 1.13 0 0 0 -1.12 0 2.4 2.4 0 0 0 -.89.94 2.28 2.28 0 0 0 -.39 1.77 2.89 2.89 0 0 0 1.37 1.6 2.5 2.5 0 0 0 2 .41 2.17 2.17 0 0 0 1.36-1.15 2.26 2.26 0 0 0 .42-1.47 1.87 1.87 0 0 0 -.67-1.1l-.92 1.52-1.07-.65z"/><path d="m231.44 227-4.74 4-5-5.85 1.53-1.32 4 4.67 3.2-2.74z"/><path d="m240.19 220.74a5.62 5.62 0 0 1 -5.91 3.23 4.21 4.21 0 0 1 -2.83-5.17 4.86 4.86 0 0 1 2.42-2.6 4.79 4.79 0 0 1 3.49-.63 4.19 4.19 0 0 1 2.83 5.17zm-6.76-1.87a2.67 2.67 0 0 0 .31 2 2.61 2.61 0 0 0 1.54 1.36 2.65 2.65 0 0 0 2.94-1.6 2.71 2.71 0 0 0 -.31-2 2.67 2.67 0 0 0 -1.55-1.36 2.24 2.24 0 0 0 -1.75.28 2.26 2.26 0 0 0 -1.18 1.32z"/><path d="m246.33 219.35-2 .57 1.26-8.35 1.92-.53 5.4 6.48-2 .57-1.06-1.32-3.21.89zm2.62-3.73-1.95-2.45-.35 3.09z"/><path d="m259.44 209.2a4.9 4.9 0 0 1 3.51.91 3.69 3.69 0 0 1 1.15 2.68 3.83 3.83 0 0 1 -.89 2.88 5 5 0 0 1 -3.6 1.22l-3.38.16-.36-7.69zm-1.26 6.22 1.16-.06a3.08 3.08 0 0 0 2-.62 2.23 2.23 0 0 0 .64-1.82 2.25 2.25 0 0 0 -.76-1.74 2.89 2.89 0 0 0 -2-.43l-1.29.06z"/><path d="m271.36 209.74-1 7.64-2-.26 1-7.64z"/><path d="m282.25 220.49-1.87-.6-2.12-6.11-1.58 4.92-1.93-.61 2.35-7.34 1.89.61 2.11 6.1 1.57-4.92 1.93.62z"/><path d="m295.44 223.09-2.15 3.52-1.22-.74.52-1a2.52 2.52 0 0 1 -1.45.31 4.33 4.33 0 0 1 -1.81-.74 4 4 0 0 1 -2.12-2.55 4.68 4.68 0 0 1 3.27-5 4.45 4.45 0 0 1 3.34.78 5.31 5.31 0 0 1 2.14 2.05 2.56 2.56 0 0 1 0 2.46l-1.85-1.18a1.1 1.1 0 0 0 0-1.12 2.4 2.4 0 0 0 -.94-.89 2.33 2.33 0 0 0 -1.77-.4 2.94 2.94 0 0 0 -1.61 1.37 2.48 2.48 0 0 0 -.41 2 2.23 2.23 0 0 0 1.14 1.38 2.29 2.29 0 0 0 1.47.42 1.86 1.86 0 0 0 1.11-.67l-1.52-.93.65-1.07z"/></g></svg>
