<svg fill="none" viewBox="0 0 1298 263" xmlns="http://www.w3.org/2000/svg" xmlns:xlink="http://www.w3.org/1999/xlink"><mask id="a" fill="#fff"><path clip-rule="evenodd" d="m226.534 222.389c-23.94 25.025-57.667 40.611-95.034 40.611-72.6254 0-131.5-58.875-131.5-131.5 0-72.6254 58.8746-131.5 131.5-131.5 38.054 0 72.332 16.1637 96.344 42h1036.666c22.09 0 36.47 17.5571 32.12 39.215l-20.51 101.959c-4.35 21.658-25.79 39.215-47.88 39.215z" fill="#fff" fill-rule="evenodd"/></mask><g fill="#b6dfd7"><path d="m226.534 222.389v-10h-4.272l-2.954 3.087zm1.31-180.389-7.325 6.8077 2.967 3.1923h4.358zm1068.786 39.215 9.8 1.9714zm-20.51 101.959 9.81 1.971zm-1056.812 32.302c-22.132 23.135-53.281 37.524-87.808 37.524v20c40.207 0 76.512-16.783 102.26-43.698zm-87.808 37.524c-67.1026 0-121.5-54.397-121.5-121.5h-20c0 78.148 63.3517 141.5 141.5 141.5zm-121.5-121.5c0-67.1026 54.3974-121.5 121.5-121.5v-20c-78.1483 0-141.5 63.3517-141.5 141.5zm121.5-121.5c35.16 0 66.82 14.9219 89.019 38.8077l14.65-13.6154c-25.825-27.78672-62.722-45.1923-103.669-45.1923zm96.344 42h1036.666v-20h-1036.666zm1036.666 0c8.31 0 14.49 3.2402 18.24 7.8216 3.75 4.5815 5.71 11.2746 4.07 19.422l19.61 3.9428c2.72-13.5105-.34-26.4249-8.21-36.0364-7.87-9.6116-19.93-15.15-33.71-15.15zm22.31 27.2435-20.5 101.9585 19.61 3.943 20.5-101.9586zm-20.5 101.9585c-3.42 16.989-20.75 31.187-38.08 31.187v20c26.85 0 52.39-20.916 57.69-47.244zm-38.08 31.187h-1001.706v20h1001.706z" mask="url(#a)"/><path d="m358.68 69.18-3.96 19.8-7.38 34.74h-40.86c-1.08 0-2.16-.54-2.88-1.44-.72-.72-.9-1.98-.72-3.06l7.2-33.48 3.42-16.56h-28.44l-3.96 19.8-22.5 106.02h28.08l11.7-54.54h40.68c1.26 0 2.16.54 2.88 1.44.72.72 1.08 1.98.9 3.06l-10.8 50.04h28.26l15.66-73.08 7.56-36.18h.18l3.42-16.56z"/><path d="m472.717 69-31.68 43.38c-.72 1.08-1.98 1.62-3.24 1.62-.18 0-.54 0-.72 0-1.44-.36-2.7-1.44-3.06-2.88l-13.14-42.12h-29.52l25.02 74.16-10.98 52.02h28.44l10.8-52.02 56.52-74.16z"/><path d="m586.339 72.42c-2.7-2.16-7.38-3.24-13.86-3.24h-66.42l-26.46 126h27l23.22-109.44h26.1c1.98 0 3.42.36 4.32.72s1.26 1.26 1.26 2.7c0 .72-.18 1.8-.54 3.42l-4.68 21.6c-.72 3.24-1.98 5.22-7.2 5.22h-12.96c-7.02 0-12.6 5.76-12.6 12.78 0 6.84 5.58 12.6 12.6 12.6h42.12l1.8-9h-30.06c-1.98 0-3.6-1.62-3.6-3.6 0-2.16 1.62-3.78 3.6-3.78h17.28c9.18 0 15.12-3.6 17.28-13.68 0 0 5.58-26.64 5.76-27.9 0-1.44.18-2.7.18-3.96 0-4.68-1.44-8.1-4.14-10.44z"/><path d="m632.169 93.12c.54-3.06 1.44-5.04 2.7-5.94s3.24-1.44 6.12-1.44h39.78l3.6-16.56h-54c-7.92 0-13.86 1.62-17.64 5.22-3.96 3.6-6.66 8.82-8.1 16.02l-6.12 28.98s-1.98 9 8.64 9h33.66c2.16 0 3.78 1.62 3.78 3.78 0 1.98-1.62 3.6-3.78 3.6h-30.06c-9.36 0-15.3 3.78-17.28 14.22l-5.04 23.76c-.36 1.26-.54 2.52-.72 3.78s-.18 2.52-.18 3.6c0 4.68 1.26 8.28 4.14 10.44 2.88 2.34 7.56 3.6 14.04 3.6h51.84l3.42-16.74h-39.24c-2.16 0-3.6-.36-4.5-.9s-1.26-1.62-1.26-3.06c0-1.08.18-2.16.54-3.42l4.5-21.06c.54-3.24 1.98-5.22 7.2-5.22h26.64c6.84 0 12.6-5.76 12.6-12.6 0-7.02-5.76-12.78-12.6-12.78h-23.22c-4.14 0-4.86-2.16-3.78-5.94z"/><path d="m787.912 72.42c-2.88-2.16-7.38-3.24-13.86-3.24h-79.38l-26.46 126h27l23.22-109.44h39.06c1.98 0 3.42.36 4.14.72.9.36 1.44 1.26 1.44 2.7 0 .72-5.22 25.02-5.22 25.02-.72 3.24-2.16 5.22-7.2 5.22h-21.6c-7.02 0-12.6 5.76-12.6 12.78 0 6.84 5.58 12.6 12.6 12.6h12.96c2.52 0 4.14 1.26 4.14 2.7.18 1.44 2.16 47.7 2.16 47.7h29.34c-.36-10.08-2.16-50.76-2.34-53.46-.36-2.88-2.7-5.94-8.64-5.94h-23.76c-1.98 0-3.6-1.62-3.6-3.6 0-2.16 1.62-3.78 3.6-3.78h25.74c9.36 0 15.12-3.78 17.28-13.68 0 0 5.76-26.64 5.76-27.9.18-1.44.18-2.7.18-3.96 0-4.68-1.26-8.1-3.96-10.44z"/><path d="m906.59 72.6c-2.88-2.34-7.56-3.6-14.04-3.6h-80.28l-26.46 126h81.9c8.1 0 13.86-1.62 17.82-5.22s6.66-8.82 8.1-16.02c0 0 16.74-85.86 16.92-87.12s.18-2.52.18-3.6c0-4.68-1.44-8.28-4.14-10.44zm-24.84 20.52-15.12 77.94c-.72 3.06-1.62 5.04-2.7 5.94-1.26.9-3.24 1.44-6.12 1.44h-41.4l7.2-34.38 3.6-16.74 8.82-41.58h40.5c2.16 0 3.6.36 4.5.9.72.54 1.26 1.62 1.26 3.06 0 1.08-.18 2.16-.54 3.42z"/><path d="m1016.25 72.42c-2.88-2.16-7.38-3.24-13.86-3.24h-79.378l-26.46 126h27l23.22-109.44h39.06c1.98 0 3.42.36 4.14.72.9.36 1.44 1.26 1.44 2.7 0 .72-5.22 25.02-5.22 25.02-.72 3.24-2.16 5.22-7.2 5.22h-21.6c-7.02 0-12.6 5.76-12.6 12.78 0 6.84 5.58 12.6 12.6 12.6h12.96c2.52 0 4.14 1.26 4.14 2.7.18 1.44 2.16 47.7 2.16 47.7h29.338c-.36-10.08-2.16-50.76-2.34-53.46-.36-2.88-2.7-5.94-8.638-5.94h-23.76c-1.98 0-3.6-1.62-3.6-3.6 0-2.16 1.62-3.78 3.6-3.78h25.74c9.358 0 15.118-3.78 17.278-13.68 0 0 5.76-26.64 5.76-27.9.18-1.44.18-2.7.18-3.96 0-4.68-1.26-8.1-3.96-10.44z"/><path d="m1067.46 69h-28.26l-26.46 126h28.26z"/><path d="m1155.47 69.18-5.94 11.34c-2.16 3.96-3.6 5.22-8.82 5.22h-19.8c-6.84 0-12.6 5.76-12.6 12.6 0 7.02 5.76 12.78 12.6 12.78h5.76c4.14 0 5.58 2.16 3.96 5.58l-16.56 31.86c-.72 1.26-1.98 2.16-3.42 2.16-.36 0-.54 0-.9 0-1.8-.36-3.06-1.98-3.24-3.78l-7.56-77.76h-25.56l12.24 126h23.04c5.22 0 7.2-.72 10.08-6.12 10.26-18.9 41.58-77.04 42.12-77.94 1.98-3.6.72-9-9.9-9h-16.02c-2.16 0-3.78-1.62-3.78-3.78 0-1.98 1.62-3.6 3.78-3.6h18.72c9.36 0 18.18-4.14 23.94-14.76l5.94-10.8z"/><path d="m1208.56 93.12c.54-3.06 1.44-5.04 2.7-5.94s3.24-1.44 6.12-1.44h39.78l3.6-16.56h-54c-7.92 0-13.86 1.62-17.64 5.22-3.96 3.6-6.66 8.82-8.1 16.02l-6.12 28.98s-1.98 9 8.64 9h33.66c2.16 0 3.78 1.62 3.78 3.78 0 1.98-1.62 3.6-3.78 3.6h-30.06c-9.36 0-15.3 3.78-17.28 14.22l-5.04 23.76c-.36 1.26-.54 2.52-.72 3.78s-.18 2.52-.18 3.6c0 4.68 1.26 8.28 4.14 10.44 2.88 2.34 7.56 3.6 14.04 3.6h51.84l3.42-16.74h-39.24c-2.16 0-3.6-.36-4.5-.9s-1.26-1.62-1.26-3.06c0-1.08.18-2.16.54-3.42l4.5-21.06c.54-3.24 1.98-5.22 7.2-5.22h26.64c6.84 0 12.6-5.76 12.6-12.6 0-7.02-5.76-12.78-12.6-12.78h-23.22c-4.14 0-4.86-2.16-3.78-5.94z"/></g><path d="m95.5834 228.479c-8.1232-5.044-9.4475-12.868-6.8546-19.976 5.3707-14.353 22.5142-21.422 38.8372-13.668 5.96 2.858 9.875 7.622 19.845 11.703 15.229 6.217 13.267 22.523-.711 26.263-19.903 5.211-38.518 3.526-51.1166-4.322z" fill="#fff202"/><path d="m52.1163 87.4727c50.9827 5.0834 94.2927.9649 118.3307-29.5634 7.078-8.9563 20.384-10.0337 28.978-2.4612.261.2273.522.4551.722.6613 12.746 11.4759 8.831 30.394-11.335 34.2301-24.269 4.6055-47.256 15.8065-71.965 44.9505-21.1427 24.877-64.7828 26.651-80.2236 3.896-12.934-19.032-6.3615-40.0429-.4504-45.9053 2.9343-2.8714 8.9325-6.476 15.9433-5.808z" fill="#fff202"/><path d="m165.966 35.8741c7.226 2.566 9.694 11.4042 4.861 17.3118-18.194 22.349-52.484 31.4922-99.1128 19.9254-10.2987-2.5775-11.9558-12.5446-5.5041-19.1593 24.2551-24.7842 64.2959-30.671 99.7559-18.0779z" fill="#fff202"/><path d="m207.624 110.725c19.248 6.836 27.762 23.489 24.042 40.317-.392 1.683-.785 3.365-1.237 5.026l-.022.06c-.711 2.581-1.505 5.2-2.419 7.776l-.192.54c-9.991 27.555-39.836 42.663-68.515 35.042-12.505-3.294-23.976-6.423-30.944-8.56-17.317-5.34-33.9526-.858-47.3099 7.488-8.528 5.338-17.8344 4.394-23.9347-2.495-.2794-.369-.6405-.7-.9199-1.069-9.1174-10.524-2.7622-26.687 11.0055-28.679 18.8057-2.701 37.237-11.471 50.239-27.095 29.979-35.705 58.024-37.081 86.46-29.546.75.199 1.5.398 2.25.596.464.233 1.011.427 1.497.599z" fill="#fff202"/></svg>
