<svg fill="currentColor" viewBox="0 0 225 243" xmlns="http://www.w3.org/2000/svg"><path d="m77.5834 222.479c-8.1232-5.044-9.4475-12.868-6.8546-19.976 5.3707-14.353 22.5139-21.422 38.8372-13.668 5.96 2.858 9.875 7.622 19.845 11.703 15.229 6.217 13.267 22.523-.711 26.263-19.903 5.211-38.5181 3.526-51.1166-4.322z"/><path d="m34.1163 81.4727c50.9827 5.0834 94.2927.9649 118.3307-29.5634 7.078-8.9563 20.384-10.0337 28.978-2.4612.261.2273.522.4551.722.6613 12.746 11.4759 8.831 30.394-11.335 34.2301-24.269 4.6055-47.256 15.8065-71.9651 44.9505-21.1426 24.877-64.7827 26.651-80.2235 3.896-12.93397-19.032-6.3615-40.0429-.4504-45.9053 2.9343-2.8714 8.9325-6.476 15.9433-5.808z"/><path d="m147.966 29.8741c7.226 2.566 9.694 11.4042 4.861 17.3118-18.194 22.349-52.484 31.4922-99.1128 19.9254-10.2987-2.5775-11.9558-12.5446-5.5041-19.1593 24.2551-24.7842 64.2959-30.671 99.7559-18.0779z"/><path d="m189.624 104.725c19.248 6.836 27.762 23.489 24.042 40.317-.392 1.683-.785 3.365-1.237 5.026l-.022.06c-.711 2.581-1.505 5.2-2.419 7.776l-.192.54c-9.991 27.555-39.836 42.663-68.515 35.042-12.505-3.294-23.976-6.423-30.944-8.56-17.3172-5.34-33.9526-.858-47.3099 7.488-8.528 5.338-17.8344 4.394-23.9347-2.495-.2794-.369-.6405-.7-.9199-1.069-9.1174-10.524-2.7622-26.687 11.0055-28.679 18.8057-2.701 37.2368-11.471 50.2386-27.095 29.9794-35.7053 58.0244-37.0805 86.4604-29.546.75.199 1.5.398 2.25.596.464.233 1.011.427 1.497.599z"/></svg>
