<svg fill="none" height="212" viewBox="0 0 213 212" width="213" xmlns="http://www.w3.org/2000/svg"><g fill="#a88d64"><path d="m188.748 41.273c.245.9116.245 1.7787-.022 2.6013s-.756 1.5563-1.512 2.2011c-.734.6447-1.556 1.0227-2.401 1.1561-.867.1334-1.712 0-2.579-.378-.867-.3779-1.667-1.0005-2.401-1.8676l-2.379-2.7791-5.136 4.4022-1.445-1.6897 12.584-10.8053 3.824 4.4688c.734.8671 1.223 1.7565 1.489 2.6458zm-5.358 3.7574c.845.1334 1.601-.1111 2.29-.7114s1.045-1.3118 1.045-2.1566c0-.8449-.333-1.6675-1.045-2.4901l-2.223-2.6013-4.602 3.9575 2.223 2.6012c.711.8227 1.467 1.2896 2.312 1.4007z"/><path d="m194.151 47.6316 1.156 1.8898-12.517 7.737 4.024 6.5143-1.579.9783-5.18-8.4041z"/><path d="m194.684 74.6226-2.534-6.2697-5.069.2001-.845-2.1344 17.72-.3557.822 2.0454-13.028 12.0058-.845-2.1121 3.802-3.3572zm1.49-1.3118 5.136-4.5577c.222-.2001.556-.4892 1.023-.8449v-.0445c-.601.0667-1.045.089-1.334.1112l-6.87.2668z"/><path d="m199.198 83.3604 8.404-7.7594.578 2.4012-5.959 5.3137c-.378.3335-.644.5558-.822.6447v.0445c.222 0 .556.0889 1.045.2223l7.715 2.0899.578 2.4012-11.006-3.1793-6.425 1.5118-.511-2.1788 6.425-1.5118z"/><path d="m210.737 118.666c-.467.823-1.09 1.423-1.868 1.823s-1.645.556-2.623.489c-.979-.066-1.823-.378-2.513-.889-.689-.511-1.223-1.201-1.556-2.09-.334-.867-.467-1.89-.378-3.024l.289-3.646-6.759-.533.178-2.201 16.519 1.289-.467 5.87c-.089 1.133-.378 2.112-.845 2.912zm-6.426-1.134c.512.689 1.201 1.045 2.135 1.134.911.067 1.667-.2 2.267-.778.601-.6.934-1.423 1.023-2.49l.267-3.424-6.047-.467-.267 3.424c-.089 1.067.133 1.956.622 2.623z"/><path d="m210.047 126.981-.511 2.157-14.318-3.402-1.756 7.448-1.824-.422 2.268-9.605 16.119 3.824z"/><path d="m191.327 146.435 2.668-6.225-3.735-3.447.889-2.112 12.784 12.295-.867 2.023-17.697-.733.889-2.112zm1.979.133 6.848.423c.289 0 .733.044 1.311.133v-.044c-.444-.356-.778-.645-.978-.868l-5.047-4.668-2.156 5.024z"/><path d="m188.37 155.729 11.428.467-1.312 2.112-7.981-.467c-.49-.022-.845-.067-1.045-.134v.045c.111.156.311.445.555.889l3.98 6.937-1.312 2.112-5.513-10.027-5.625-3.468 1.178-1.912 5.625 3.468z"/><path d="m171.473 188.922c-.911.245-1.778.223-2.601-.022-.823-.267-1.556-.778-2.201-1.512-.645-.733-1.023-1.556-1.156-2.401-.134-.867 0-1.712.378-2.579s1-1.667 1.867-2.401l2.779-2.379-4.402-5.158 1.69-1.445 10.761 12.606-4.469 3.824c-.867.734-1.757 1.223-2.668 1.467zm-3.735-5.358c-.133.845.111 1.601.711 2.29.601.689 1.312 1.045 2.157 1.067.845 0 1.668-.333 2.49-1.045l2.601-2.223-3.935-4.624-2.601 2.223c-.823.689-1.29 1.467-1.423 2.29z"/><path d="m165.114 194.303-1.889 1.156-7.715-12.517-6.514 4.002-.979-1.601 8.404-5.18 8.693 14.118z"/><path d="m138.124 194.77 6.292-2.513-.201-5.069 2.135-.845.311 17.72-2.045.823-11.984-13.073 2.134-.845zm1.289 1.489 4.536 5.158c.2.223.489.556.845 1.023h.044c-.067-.6-.089-1.045-.089-1.334l-.244-6.87-5.07 2.023z"/><path d="m129.386 199.239 7.737 8.426-2.401.556-5.314-5.981c-.333-.378-.533-.645-.644-.823h-.045c0 .223-.089.556-.222 1.045l-2.112 7.715-2.401.556 3.201-10.983-1.512-6.425 2.179-.512 1.512 6.426z"/><path d="m94.0357 210.71c-.8227-.466-1.4229-1.089-1.8231-1.867s-.5559-1.645-.4892-2.624c.0667-.978.378-1.823.8894-2.512.5113-.689 1.2228-1.223 2.0899-1.556.8893-.334 1.8898-.467 3.0236-.378l3.6467.289.533-6.759 2.223.178-1.311 16.519-5.8698-.467c-1.1339-.089-2.1121-.378-2.9125-.845zm1.1561-6.425c-.667.511-1.045 1.201-1.1339 2.134-.0667.912.1779 1.668.7782 2.268.6002.601 1.4229.956 2.49 1.023l3.4239.267.489-6.048-3.4237-.266c-1.0672-.089-1.9565.111-2.6235.622z"/><path d="m85.7204 209.999-2.1566-.511 3.4239-14.296-7.448-1.779.4446-1.823 9.6047 2.29z"/><path d="m66.3111 191.257 6.2252 2.668 3.4461-3.713 2.1122.911-12.3171 12.74-2.0232-.867.7781-17.698 2.1122.912-.3335 5.069zm-.1334 1.979-.4225 6.847c0 .289-.0667.734-.1334 1.312h.0445c.378-.445.6448-.778.8671-.978l4.6689-5.025z"/><path d="m56.9732 188.233-.4891 11.428-2.0899-1.312.4891-7.981c.0223-.49.0667-.845.1334-1.045h-.0444c-.1557.111-.4447.311-.8894.555l-6.9366 3.958-2.1122-1.312 10.0493-5.491 3.4906-5.603 1.9121 1.178-3.4906 5.603z"/><path d="m23.8683 171.291c-.2446-.911-.2224-1.778.0444-2.601s.7782-1.556 1.5119-2.201 1.5563-1.023 2.4012-1.156c.8448-.133 1.7119 0 2.579.378s1.6452 1 2.3789 1.867l2.3789 2.802 5.1581-4.38 1.4451 1.69-12.6283 10.738-3.8018-4.491c-.7337-.867-1.2229-1.756-1.4674-2.668zm5.3804-3.713c-.8449-.133-1.6008.112-2.3123.69-.6892.6-1.0449 1.311-1.0672 2.156-.0222.845.3335 1.668 1.0228 2.49l2.2233 2.602 4.6244-3.936-2.2233-2.623c-.6892-.823-1.4673-1.29-2.29-1.423z"/><path d="m18.5101 164.911-1.1561-1.89 12.5394-7.67-4.0019-6.537 1.6008-.978 5.158 8.426z"/><path d="m18.1099 137.942 2.4901 6.292 5.0691-.178.8449 2.134-17.71972.267-.80038-2.045 13.0952-11.939.8449 2.134-3.8241 3.357zm-1.4896 1.289-5.1581 4.536c-.2223.2-.5558.489-1.0227.845v.044c.6003-.066 1.045-.089 1.334-.089l6.87-.244-2.0232-5.069z"/><path d="m13.6411 129.183-8.44853 7.737-.55582-2.402 5.98065-5.291c.378-.334.6448-.534.8449-.645v-.044c-.2224 0-.5558-.089-1.045-.223l-7.69259-2.112-.55583-2.401 10.98312 3.224 6.4476-1.49.5113 2.179-6.4476 1.49z"/><path d="m2.25781 93.8096c.46689-.8227 1.08942-1.423 1.86757-1.8232.77816-.4001 1.64524-.5558 2.62349-.4668.97826.0889 1.82311.3779 2.51233.8893.71146.5113 1.2228 1.2228 1.5563 2.0899s.4669 1.8898.3557 3.0237l-.3112 3.6465 6.7588.556-.1779 2.201-16.519072-1.357.489122-5.8692c.08894-1.1338.37797-2.1121.84486-2.9125zm6.42534 1.1783c-.48913-.6892-1.20059-1.0672-2.11214-1.1339s-1.66747.1779-2.26777.7782c-.60029.6003-.95602 1.4229-1.02271 2.4901l-.28903 3.4237 6.04737.489.28903-3.4236c.08893-1.0672-.11116-1.9565-.62252-2.6235z"/><path d="m2.99146 85.4946.51135-2.1566 14.29579 3.4461 1.8009-7.448 1.8231.4446-2.3122 9.6047z"/><path d="m21.7784 66.1292-2.6902 6.203 3.7129 3.4684-.9115 2.0899-12.7173-12.3393.8671-2.0232 17.6975.8226-.9116 2.1121-5.0691-.3335zm-1.9787-.1334-6.8478-.4446c-.289 0-.7337-.0667-1.3117-.1334v.0444c.4446.3558.7781.6448.9782.8671l5.0247 4.6912 2.1788-5.0247z"/><path d="m24.8465 56.7917-11.4277-.5113 1.3117-2.0899 7.9817.5113c.4891.0445.8448.0667 1.0449.1334v-.0445c-.1112-.1556-.3113-.4668-.5558-.8893l-3.9353-6.9589 1.3118-2.0899 5.4693 10.0493 5.6027 3.5128-1.1783 1.8898-5.6027-3.5128z"/><path d="m41.8548 23.731c.9115-.2445 1.7786-.2223 2.6012.0445s1.5563.7782 2.2011 1.5341c.6225.7559 1.0227 1.5563 1.1339 2.4011.1334.8671 0 1.712-.378 2.5791-.3779.8671-1.0227 1.6452-1.8898 2.3789l-2.8013 2.3567 4.3799 5.1581-1.6898 1.4229-10.7163-12.6506 4.4911-3.8018c.8671-.7337 1.7564-1.2229 2.668-1.4674zm3.7129 5.3804c.1334-.8226-.1112-1.6007-.6892-2.3122-.6003-.6892-1.3118-1.045-2.1566-1.0672-.8449 0-1.6675.3335-2.4901 1.0227l-2.6235 2.2233 3.913 4.6245 2.6235-2.2233c.8226-.6892 1.2895-1.4674 1.4229-2.29z"/><path d="m48.2357 18.3731 1.8898-1.1561 7.6481 12.5616 6.5365-3.9797.9783 1.6008-8.4263 5.1358z"/><path d="m75.2932 18.0177-6.2919 2.4679.1556 5.0691-2.1343.8448-.2224-17.71966 2.0455-.80038 11.9169 13.13974-2.1344.8448-3.335-3.8241zm-1.2895-1.4896-4.5133-5.1803c-.2001-.2223-.4891-.5558-.8226-1.0227h-.0445c.0667.6003.089 1.0449.089 1.334l.2223 6.87 5.0914-2.001z"/><path d="m83.9641 13.6153-7.7148-8.47073 2.4011-.55583 5.2693 6.00296c.3334.3779.5335.6447.6447.8226h.0445c0-.2224.0889-.5559.2223-1.045l2.1344-7.69259 2.4011-.55583-3.2682 10.98312 1.4674 6.4476-2.1789.4891-1.4673-6.4476z"/><path d="m119.448 2.29861c.8.46689 1.401 1.11165 1.801 1.86757.4.75593.556 1.64525.467 2.6235s-.378 1.8231-.912 2.51233c-.511.68922-1.223 1.22279-2.09 1.53409-.889.3335-1.89.4446-3.023.3557l-3.647-.3112-.578 6.7365-2.201-.1778 1.401-16.519134 5.869.511354c1.134.08894 2.113.37797 2.913.84486zm-1.201 6.42534c.69-.48913 1.068-1.20058 1.134-2.11214.089-.91155-.178-1.66747-.756-2.26776s-1.423-.95602-2.49-1.04495l-3.424-.28903-.511 6.04737 3.424.28903c1.067.08893 1.956-.11116 2.623-.60029z"/><path d="m127.763 3.05432 2.157.53359-3.491 14.29579 7.448 1.8231-.444 1.8231-9.583-2.3567 3.935-16.09665z"/><path d="m147.084 21.9304-6.203-2.7124-3.469 3.7129-2.09-.9116 12.384-12.67277 2.001.86707-.867 17.6975-2.09-.9116.356-5.0691zm.155-1.9787.467-6.8478c0-.3113.067-.7337.133-1.3117h-.044c-.378.4224-.667.7559-.867.9782l-4.714 5.0024 5.003 2.1789z"/><path d="m156.355 24.9537.556-11.4277 2.089 1.3117-.511 7.9817c-.044.4891-.089.8448-.133 1.0449h.044c.156-.1111.467-.3112.889-.5558l6.959-3.913 2.09 1.3117-10.071 5.4471-3.513 5.6027-1.89-1.2006 3.513-5.6027z"/></g></svg>