<svg class="flex w-full fill-current" viewBox="0 0 48 48" xmlns="http://www.w3.org/2000/svg"><path d="m324.001 260c-13.2538 0-24.0014 10.7448-24.0014 24.0014 0 9.82466 5.91004 18.2692 14.3687 21.9806-.067737-1.67366-.01129-3.68883.414888-5.51208.462868-1.94743 3.08767-13.076 3.08767-13.076s-.764861-1.53255-.764861-3.79891c0-3.55618 2.06315-6.21203 4.62868-6.21203 2.18169 0 3.23726 1.63979 3.23726 3.60416 0 2.19298-1.3999 5.47539-2.1196 8.51508-.601165 2.5486 1.27571 4.62304 3.78762 4.62304 4.54683 0 7.6091-5.83948 7.6091-12.7599 0-5.25807-3.54207-9.19527-9.98554-9.19527-7.27889 0-11.8144 5.42741-11.8144 11.4899 0 2.0942.615276 3.56747 1.58053 4.70771.445934.527783.505203.736638.344328 1.34062-.112894.437467-.378197 1.50432-.488269 1.92485-.160875.606809-.651967.826954-1.19951.601164-3.3558-1.36885-4.91656-5.04075-4.91656-9.16987 0-6.81602 5.74916-14.9952 17.1515-14.9952 9.16423 0 15.1956 6.63539 15.1956 13.7506 0 9.41542-5.23267 16.4488-12.9518 16.4488-2.58811 0-5.02664-1.39989-5.86206-2.98889 0 0-1.39425 5.52902-1.68778 6.59587-.508026 1.84865-1.50432 3.70012-2.41595 5.13953 2.15911.637855 4.43958.985006 6.80191.985006 13.2538 0 23.9986-10.7448 23.9986-23.9986 0-13.2567-10.7448-24.0014-23.9986-24.0014" fill-rule="evenodd" transform="translate(-300 -260)"/></svg>
